<svg width="45" height="46" viewBox="0 0 45 46" fill="none" xmlns="http://www.w3.org/2000/svg">
<g clip-path="url(#clip0_407_155)">
<path d="M4.65601 36.4264L19.656 45.0048H42.656C36.156 40.9679 19.456 33.6005 4.65601 36.4264Z" fill="#D9D9D9" stroke="#D9D9D9" stroke-width="0.1"/>
<path d="M2 35.3279V14.6387C2 -1.00437 26.5 -7.05974 28.5 16.6572V38.3556C24.3333 36.8418 13.2 34.1169 2 35.3279Z" fill="#D9D9D9" stroke="black" stroke-width="0.2"/>
<path d="M25 14.1341C25 16.3636 23.2091 18.171 21 18.171C18.7909 18.171 17 16.3636 17 14.1341C17 11.9046 18.7909 10.0972 21 10.0972C23.2091 10.0972 25 11.9046 25 14.1341Z" fill="url(#paint0_linear_407_155)"/>
<path d="M0 36.3372C0.153564 42.3926 4.99912 44.9157 19.5 44.9157L4.67064 36.3372H0Z" fill="url(#paint1_linear_407_155)" stroke="url(#paint2_linear_407_155)" stroke-width="0.3"/>
<path d="M2.00024 14.1435C4.00024 -4.02257 27.6739 -3.02272 28.5 16.1526C27.5 -7.05968 0.500244 -3.0134 0.000244141 14.1435V36.3466L2.00024 35.3374V14.1435Z" fill="#623F18"/>
<path d="M28.5002 37.8605C17.5002 34.3282 6.50024 34.4964 2.00024 35.3374L0.000244141 36.3466C1.88132 36.2304 4.2158 36.1712 6 36.1632C22.8064 36.0876 38.6305 42.4826 43 44.9156C39.8 42.8972 30.6669 38.7015 28.5002 37.8605Z" fill="#623F18"/>
<path fill-rule="evenodd" clip-rule="evenodd" d="M0.000244141 36.3466C1.88132 36.2304 4.2158 36.1712 6 36.1632C5.95075 36.1632 6.14578 36.1494 6 36.1632C6.04925 36.1632 6 36.1632 0.000244141 36.3466Z" fill="#623F18"/>
<path d="M28.5 16.1526C27.6739 -3.02272 4.00024 -4.02257 2.00024 14.1435V35.3374M28.5002 37.8605L28.5 16.1526C27.5 -7.05968 0.500244 -3.0134 0.000244141 14.1435V36.3466C6 36.1631 6.04925 36.1631 6 36.1631M0.000244141 36.3466L2.00024 35.3374M0.000244141 36.3466C1.88132 36.2304 4.2158 36.1712 6 36.1631M2.00024 35.3374C6.50024 34.4964 17.5002 34.3282 28.5002 37.8605M28.5002 37.8605C30.6669 38.7015 39.8 42.8972 43 44.9156C38.6305 42.4826 22.8064 36.0876 6 36.1631M6 36.1631C5.95075 36.1631 6.14578 36.1494 6 36.1631Z" stroke="#623F18" stroke-width="0.3"/>
</g>
<defs>
<linearGradient id="paint0_linear_407_155" x1="23.5" y1="13.6295" x2="18.4758" y2="10.6425" gradientUnits="userSpaceOnUse">
<stop stop-color="#D5B69C"/>
<stop offset="1" stop-color="#BF9672"/>
</linearGradient>
<linearGradient id="paint1_linear_407_155" x1="15.8438" y1="40.0903" x2="10.0486" y2="32.1864" gradientUnits="userSpaceOnUse">
<stop stop-color="#D5B69C"/>
<stop offset="1" stop-color="#BF9672"/>
</linearGradient>
<linearGradient id="paint2_linear_407_155" x1="15.8438" y1="40.0903" x2="10.0486" y2="32.1864" gradientUnits="userSpaceOnUse">
<stop stop-color="#D5B69C"/>
<stop offset="1" stop-color="#BF9672"/>
</linearGradient>
<clipPath id="clip0_407_155">
<rect width="45" height="46" fill="white"/>
</clipPath>
</defs>
</svg>
