<svg width="161" height="46" viewBox="0 0 161 46" fill="none" xmlns="http://www.w3.org/2000/svg">
<g clip-path="url(#clip0_414_142)">
<path d="M4.65601 36.4264L19.656 45.0048H42.656C36.156 40.9679 19.456 33.6005 4.65601 36.4264Z" fill="#D9D9D9" stroke="#D9D9D9" stroke-width="0.1"/>
<path d="M2 35.3279V14.6387C2 -1.00437 26.5 -7.05974 28.5 16.6572V38.3556C24.3333 36.8418 13.2 34.1169 2 35.3279Z" fill="#D9D9D9" stroke="black" stroke-width="0.2"/>
<path d="M25 14.1341C25 16.3636 23.2091 18.171 21 18.171C18.7909 18.171 17 16.3636 17 14.1341C17 11.9046 18.7909 10.0972 21 10.0972C23.2091 10.0972 25 11.9046 25 14.1341Z" fill="url(#paint0_linear_414_142)"/>
<path d="M0 36.3372C0.153564 42.3926 4.99912 44.9157 19.5 44.9157L4.67064 36.3372H0Z" fill="url(#paint1_linear_414_142)" stroke="url(#paint2_linear_414_142)" stroke-width="0.3"/>
<path d="M2.00024 14.1435C4.00024 -4.02257 27.6739 -3.02272 28.5 16.1526C27.5 -7.05968 0.500244 -3.0134 0.000244141 14.1435V36.3466L2.00024 35.3374V14.1435Z" fill="#623F18"/>
<path d="M28.5002 37.8605C17.5002 34.3282 6.50024 34.4964 2.00024 35.3374L0.000244141 36.3466C1.88132 36.2304 4.2158 36.1712 6 36.1632C22.8064 36.0876 38.6305 42.4826 43 44.9156C39.8 42.8972 30.6669 38.7015 28.5002 37.8605Z" fill="#623F18"/>
<path fill-rule="evenodd" clip-rule="evenodd" d="M0.000244141 36.3466C1.88132 36.2304 4.2158 36.1712 6 36.1632C5.95075 36.1632 6.14578 36.1494 6 36.1632C6.04925 36.1632 6 36.1632 0.000244141 36.3466Z" fill="#623F18"/>
<path d="M28.5 16.1526C27.6739 -3.02272 4.00024 -4.02257 2.00024 14.1435V35.3374M28.5002 37.8605L28.5 16.1526C27.5 -7.05968 0.500244 -3.0134 0.000244141 14.1435V36.3466C6 36.1631 6.04925 36.1631 6 36.1631M0.000244141 36.3466L2.00024 35.3374M0.000244141 36.3466C1.88132 36.2304 4.2158 36.1712 6 36.1631M2.00024 35.3374C6.50024 34.4964 17.5002 34.3282 28.5002 37.8605M28.5002 37.8605C30.6669 38.7015 39.8 42.8972 43 44.9156C38.6305 42.4826 22.8064 36.0876 6 36.1631M6 36.1631C5.95075 36.1631 6.14578 36.1494 6 36.1631Z" stroke="#623F18" stroke-width="0.3"/>
</g>
<path d="M45.702 17.256C45.978 17.268 46.332 17.28 46.764 17.292C47.208 17.304 47.646 17.31 48.078 17.31C48.654 17.31 49.2 17.304 49.716 17.292C50.244 17.28 50.616 17.274 50.832 17.274C51.852 17.274 52.698 17.406 53.37 17.67C54.054 17.934 54.558 18.306 54.882 18.786C55.218 19.254 55.386 19.794 55.386 20.406C55.386 20.778 55.308 21.174 55.152 21.594C55.008 22.002 54.75 22.386 54.378 22.746C54.006 23.094 53.502 23.382 52.866 23.61C52.23 23.838 51.42 23.952 50.436 23.952H48.708V23.592H50.256C51.06 23.592 51.672 23.46 52.092 23.196C52.524 22.92 52.812 22.56 52.956 22.116C53.112 21.66 53.19 21.156 53.19 20.604C53.19 19.656 52.986 18.924 52.578 18.408C52.17 17.88 51.462 17.616 50.454 17.616C49.938 17.616 49.596 17.718 49.428 17.922C49.272 18.126 49.194 18.54 49.194 19.164V28.092C49.194 28.524 49.23 28.848 49.302 29.064C49.374 29.28 49.512 29.424 49.716 29.496C49.92 29.568 50.22 29.616 50.616 29.64V30C50.328 29.976 49.962 29.964 49.518 29.964C49.086 29.952 48.642 29.946 48.186 29.946C47.682 29.946 47.208 29.952 46.764 29.964C46.332 29.964 45.978 29.976 45.702 30V29.64C46.11 29.616 46.416 29.568 46.62 29.496C46.824 29.424 46.956 29.28 47.016 29.064C47.088 28.848 47.124 28.524 47.124 28.092V19.164C47.124 18.72 47.088 18.396 47.016 18.192C46.956 17.976 46.818 17.832 46.602 17.76C46.398 17.676 46.098 17.628 45.702 17.616V17.256ZM48.744 23.646C49.356 23.67 49.848 23.7 50.22 23.736C50.592 23.76 50.904 23.784 51.156 23.808C51.408 23.832 51.642 23.862 51.858 23.898C52.758 24.018 53.412 24.258 53.82 24.618C54.24 24.978 54.528 25.53 54.684 26.274L55.134 28.11C55.242 28.626 55.356 28.992 55.476 29.208C55.608 29.424 55.8 29.532 56.052 29.532C56.244 29.52 56.4 29.466 56.52 29.37C56.652 29.262 56.79 29.118 56.934 28.938L57.186 29.136C56.91 29.508 56.622 29.79 56.322 29.982C56.022 30.162 55.62 30.252 55.116 30.252C54.6 30.252 54.156 30.12 53.784 29.856C53.424 29.58 53.166 29.064 53.01 28.308L52.65 26.508C52.542 25.992 52.422 25.548 52.29 25.176C52.158 24.792 51.972 24.492 51.732 24.276C51.504 24.06 51.168 23.952 50.724 23.952H48.78L48.744 23.646ZM65.8635 20.514V28.056C65.8635 28.596 65.9535 28.998 66.1335 29.262C66.3255 29.514 66.6675 29.64 67.1595 29.64V30.018C66.7875 29.982 66.4155 29.964 66.0435 29.964C65.6475 29.964 65.2695 29.982 64.9095 30.018C64.5495 30.054 64.2195 30.12 63.9195 30.216V28.254C63.6195 28.974 63.1995 29.49 62.6595 29.802C62.1315 30.102 61.5735 30.252 60.9855 30.252C60.5415 30.252 60.1635 30.186 59.8515 30.054C59.5395 29.934 59.2815 29.772 59.0775 29.568C58.8615 29.328 58.7115 29.022 58.6275 28.65C58.5435 28.266 58.5015 27.786 58.5015 27.21V22.674C58.5015 22.134 58.4115 21.738 58.2315 21.486C58.0515 21.222 57.7095 21.09 57.2055 21.09V20.712C57.5895 20.748 57.9615 20.766 58.3215 20.766C58.7175 20.766 59.0955 20.748 59.4555 20.712C59.8155 20.664 60.1455 20.598 60.4455 20.514V27.714C60.4455 28.062 60.4695 28.38 60.5175 28.668C60.5655 28.956 60.6795 29.184 60.8595 29.352C61.0395 29.52 61.3275 29.604 61.7235 29.604C62.1435 29.604 62.5155 29.478 62.8395 29.226C63.1755 28.974 63.4395 28.632 63.6315 28.2C63.8235 27.768 63.9195 27.282 63.9195 26.742V22.674C63.9195 22.134 63.8295 21.738 63.6495 21.486C63.4695 21.222 63.1275 21.09 62.6235 21.09V20.712C63.0075 20.748 63.3795 20.766 63.7395 20.766C64.1355 20.766 64.5135 20.748 64.8735 20.712C65.2335 20.664 65.5635 20.598 65.8635 20.514ZM70.5592 30.126C70.0552 30.126 69.6232 30.03 69.2632 29.838C68.9032 29.646 68.6332 29.382 68.4532 29.046C68.2732 28.71 68.1832 28.326 68.1832 27.894C68.1832 27.366 68.3032 26.94 68.5432 26.616C68.7832 26.28 69.0892 26.01 69.4612 25.806C69.8452 25.602 70.2472 25.434 70.6672 25.302C71.0992 25.158 71.5012 25.026 71.8732 24.906C72.2572 24.774 72.5692 24.624 72.8092 24.456C73.0612 24.288 73.1872 24.066 73.1872 23.79V22.566C73.1872 22.134 73.1152 21.792 72.9712 21.54C72.8392 21.276 72.6532 21.09 72.4132 20.982C72.1852 20.874 71.9092 20.82 71.5852 20.82C71.3092 20.82 71.0152 20.862 70.7032 20.946C70.3912 21.018 70.1452 21.168 69.9652 21.396C70.2292 21.468 70.4452 21.612 70.6132 21.828C70.7932 22.032 70.8832 22.29 70.8832 22.602C70.8832 22.938 70.7692 23.202 70.5412 23.394C70.3252 23.586 70.0492 23.682 69.7132 23.682C69.3412 23.682 69.0652 23.568 68.8852 23.34C68.7052 23.1 68.6152 22.824 68.6152 22.512C68.6152 22.188 68.6932 21.924 68.8492 21.72C69.0172 21.516 69.2332 21.324 69.4972 21.144C69.7852 20.952 70.1512 20.79 70.5952 20.658C71.0512 20.526 71.5552 20.46 72.1072 20.46C72.6232 20.46 73.0672 20.52 73.4392 20.64C73.8232 20.748 74.1412 20.928 74.3932 21.18C74.6932 21.456 74.8912 21.804 74.9872 22.224C75.0832 22.632 75.1312 23.13 75.1312 23.718V28.686C75.1312 28.986 75.1672 29.202 75.2392 29.334C75.3232 29.454 75.4552 29.514 75.6352 29.514C75.7552 29.514 75.8692 29.484 75.9772 29.424C76.0972 29.364 76.2352 29.274 76.3912 29.154L76.5712 29.46C76.3192 29.664 76.0612 29.826 75.7972 29.946C75.5452 30.066 75.2212 30.126 74.8252 30.126C74.4412 30.126 74.1292 30.066 73.8892 29.946C73.6492 29.826 73.4692 29.652 73.3492 29.424C73.2412 29.196 73.1872 28.914 73.1872 28.578C72.8752 29.082 72.5032 29.466 72.0712 29.73C71.6392 29.994 71.1352 30.126 70.5592 30.126ZM71.4232 29.262C71.7592 29.262 72.0712 29.166 72.3592 28.974C72.6592 28.782 72.9352 28.494 73.1872 28.11V24.528C73.0552 24.72 72.8632 24.888 72.6112 25.032C72.3592 25.164 72.0892 25.302 71.8012 25.446C71.5132 25.59 71.2372 25.758 70.9732 25.95C70.7212 26.13 70.5112 26.364 70.3432 26.652C70.1752 26.94 70.0912 27.306 70.0912 27.75C70.0912 28.218 70.2112 28.59 70.4512 28.866C70.6912 29.13 71.0152 29.262 71.4232 29.262ZM83.373 20.46C83.853 20.46 84.243 20.526 84.543 20.658C84.855 20.778 85.113 20.946 85.317 21.162C85.533 21.39 85.683 21.684 85.767 22.044C85.863 22.404 85.911 22.89 85.911 23.502V28.326C85.911 28.83 86.007 29.172 86.199 29.352C86.403 29.532 86.739 29.622 87.207 29.622V30C87.003 29.988 86.685 29.976 86.253 29.964C85.821 29.94 85.395 29.928 84.975 29.928C84.567 29.928 84.159 29.94 83.751 29.964C83.355 29.976 83.055 29.988 82.851 30V29.622C83.259 29.622 83.547 29.532 83.715 29.352C83.883 29.172 83.967 28.83 83.967 28.326V22.998C83.967 22.65 83.937 22.338 83.877 22.062C83.817 21.774 83.691 21.546 83.499 21.378C83.307 21.198 83.019 21.108 82.635 21.108C82.191 21.108 81.795 21.234 81.447 21.486C81.111 21.738 80.841 22.086 80.637 22.53C80.445 22.962 80.349 23.448 80.349 23.988V28.326C80.349 28.83 80.433 29.172 80.601 29.352C80.781 29.532 81.069 29.622 81.465 29.622V30C81.273 29.988 80.979 29.976 80.583 29.964C80.199 29.94 79.797 29.928 79.377 29.928C78.969 29.928 78.543 29.94 78.099 29.964C77.655 29.976 77.325 29.988 77.109 30V29.622C77.577 29.622 77.907 29.532 78.099 29.352C78.303 29.172 78.405 28.83 78.405 28.326V22.674C78.405 22.134 78.315 21.738 78.135 21.486C77.955 21.222 77.613 21.09 77.109 21.09V20.712C77.493 20.748 77.865 20.766 78.225 20.766C78.633 20.766 79.011 20.748 79.359 20.712C79.719 20.664 80.049 20.598 80.349 20.514V22.476C80.661 21.732 81.087 21.21 81.627 20.91C82.179 20.61 82.761 20.46 83.373 20.46ZM91.1805 33.384C90.5085 33.384 89.8845 33.318 89.3085 33.186C88.7445 33.054 88.2885 32.85 87.9405 32.574C87.6045 32.31 87.4365 31.968 87.4365 31.548C87.4365 31.152 87.6045 30.804 87.9405 30.504C88.2765 30.204 88.7505 29.976 89.3625 29.82L89.4885 30.108C89.2365 30.216 89.0385 30.39 88.8945 30.63C88.7625 30.87 88.6965 31.134 88.6965 31.422C88.6965 31.95 88.9425 32.358 89.4345 32.646C89.9265 32.934 90.5745 33.078 91.3785 33.078C91.9185 33.078 92.4285 33.006 92.9085 32.862C93.4005 32.73 93.7965 32.508 94.0965 32.196C94.4085 31.884 94.5645 31.482 94.5645 30.99C94.5645 30.606 94.4265 30.282 94.1505 30.018C93.8745 29.766 93.3285 29.64 92.5125 29.64H91.2525C90.8325 29.64 90.4425 29.604 90.0825 29.532C89.7225 29.46 89.4285 29.322 89.2005 29.118C88.9845 28.902 88.8765 28.602 88.8765 28.218C88.8765 27.786 89.0565 27.378 89.4165 26.994C89.7765 26.61 90.3825 26.232 91.2345 25.86L91.4505 26.022C91.1025 26.214 90.7905 26.412 90.5145 26.616C90.2505 26.808 90.1185 27.048 90.1185 27.336C90.1185 27.72 90.3945 27.912 90.9465 27.912H93.0885C93.6525 27.912 94.1625 27.99 94.6185 28.146C95.0745 28.29 95.4405 28.524 95.7165 28.848C95.9925 29.172 96.1305 29.598 96.1305 30.126C96.1305 30.69 95.9445 31.218 95.5725 31.71C95.2125 32.214 94.6665 32.616 93.9345 32.916C93.2025 33.228 92.2845 33.384 91.1805 33.384ZM91.2885 26.166C90.6765 26.166 90.1185 26.07 89.6145 25.878C89.1105 25.674 88.7145 25.362 88.4265 24.942C88.1385 24.522 87.9945 23.982 87.9945 23.322C87.9945 22.662 88.1385 22.122 88.4265 21.702C88.7145 21.27 89.1105 20.958 89.6145 20.766C90.1185 20.562 90.6765 20.46 91.2885 20.46C91.9245 20.46 92.4885 20.562 92.9805 20.766C93.4725 20.958 93.8625 21.27 94.1505 21.702C94.4385 22.122 94.5825 22.662 94.5825 23.322C94.5825 23.982 94.4385 24.522 94.1505 24.942C93.8625 25.362 93.4725 25.674 92.9805 25.878C92.4885 26.07 91.9245 26.166 91.2885 26.166ZM91.2885 25.842C91.7085 25.842 92.0325 25.662 92.2605 25.302C92.4885 24.942 92.6025 24.282 92.6025 23.322C92.6025 22.362 92.4885 21.702 92.2605 21.342C92.0325 20.97 91.7085 20.784 91.2885 20.784C90.8925 20.784 90.5745 20.97 90.3345 21.342C90.0945 21.702 89.9745 22.362 89.9745 23.322C89.9745 24.282 90.0945 24.942 90.3345 25.302C90.5745 25.662 90.8925 25.842 91.2885 25.842ZM93.9525 21.972L93.6285 21.846C93.7965 21.426 94.0845 21.06 94.4925 20.748C94.9005 20.436 95.3265 20.28 95.7705 20.28C96.1065 20.28 96.3705 20.376 96.5625 20.568C96.7665 20.748 96.8685 21.006 96.8685 21.342C96.8685 21.714 96.7665 21.978 96.5625 22.134C96.3705 22.29 96.1665 22.368 95.9505 22.368C95.7585 22.368 95.5785 22.302 95.4105 22.17C95.2545 22.038 95.1645 21.834 95.1405 21.558C95.1165 21.27 95.2065 20.904 95.4105 20.46L95.6085 20.532C95.1285 20.724 94.7745 20.928 94.5465 21.144C94.3305 21.348 94.1325 21.624 93.9525 21.972ZM111.878 17.256C111.83 17.76 111.794 18.252 111.77 18.732C111.758 19.2 111.752 19.56 111.752 19.812C111.752 20.088 111.758 20.352 111.77 20.604C111.782 20.856 111.794 21.072 111.806 21.252H111.392C111.272 20.352 111.11 19.644 110.906 19.128C110.714 18.612 110.432 18.24 110.06 18.012C109.688 17.784 109.154 17.67 108.458 17.67H107.684V27.93C107.684 28.41 107.726 28.77 107.81 29.01C107.906 29.25 108.086 29.412 108.35 29.496C108.626 29.568 109.022 29.616 109.538 29.64V30C109.202 29.976 108.77 29.964 108.242 29.964C107.714 29.952 107.174 29.946 106.622 29.946C106.046 29.946 105.5 29.952 104.984 29.964C104.48 29.964 104.072 29.976 103.76 30V29.64C104.276 29.616 104.666 29.568 104.93 29.496C105.194 29.412 105.374 29.25 105.47 29.01C105.566 28.77 105.614 28.41 105.614 27.93V17.67H104.822C104.15 17.67 103.622 17.784 103.238 18.012C102.854 18.24 102.566 18.612 102.374 19.128C102.182 19.644 102.026 20.352 101.906 21.252H101.492C101.516 21.072 101.528 20.856 101.528 20.604C101.54 20.352 101.546 20.088 101.546 19.812C101.546 19.56 101.534 19.2 101.51 18.732C101.498 18.252 101.468 17.76 101.42 17.256C101.936 17.268 102.5 17.28 103.112 17.292C103.724 17.304 104.342 17.31 104.966 17.31C105.59 17.31 106.154 17.31 106.658 17.31C107.162 17.31 107.72 17.31 108.332 17.31C108.944 17.31 109.562 17.304 110.186 17.292C110.81 17.28 111.374 17.268 111.878 17.256ZM116.571 20.46C117.627 20.46 118.455 20.778 119.055 21.414C119.655 22.05 119.955 23.058 119.955 24.438H113.745L113.709 24.096H118.047C118.059 23.508 118.011 22.968 117.903 22.476C117.795 21.972 117.627 21.57 117.399 21.27C117.171 20.97 116.871 20.82 116.499 20.82C115.983 20.82 115.533 21.096 115.149 21.648C114.777 22.188 114.549 23.058 114.465 24.258L114.519 24.348C114.507 24.516 114.495 24.702 114.483 24.906C114.471 25.098 114.465 25.29 114.465 25.482C114.465 26.31 114.591 27.006 114.843 27.57C115.095 28.134 115.425 28.56 115.833 28.848C116.241 29.124 116.655 29.262 117.075 29.262C117.399 29.262 117.711 29.214 118.011 29.118C118.323 29.01 118.617 28.836 118.893 28.596C119.169 28.344 119.415 28.002 119.631 27.57L119.991 27.714C119.847 28.122 119.625 28.524 119.325 28.92C119.025 29.316 118.641 29.64 118.173 29.892C117.705 30.132 117.159 30.252 116.535 30.252C115.695 30.252 114.963 30.066 114.339 29.694C113.715 29.31 113.235 28.764 112.899 28.056C112.563 27.348 112.395 26.508 112.395 25.536C112.395 24.468 112.569 23.556 112.917 22.8C113.265 22.044 113.751 21.468 114.375 21.072C115.011 20.664 115.743 20.46 116.571 20.46ZM127.424 20.46C127.904 20.46 128.294 20.526 128.594 20.658C128.906 20.778 129.164 20.946 129.368 21.162C129.584 21.39 129.734 21.684 129.818 22.044C129.914 22.404 129.962 22.89 129.962 23.502V28.326C129.962 28.83 130.058 29.172 130.25 29.352C130.454 29.532 130.79 29.622 131.258 29.622V30C131.054 29.988 130.736 29.976 130.304 29.964C129.872 29.94 129.446 29.928 129.026 29.928C128.618 29.928 128.21 29.94 127.802 29.964C127.406 29.976 127.106 29.988 126.902 30V29.622C127.31 29.622 127.598 29.532 127.766 29.352C127.934 29.172 128.018 28.83 128.018 28.326V22.998C128.018 22.65 127.988 22.338 127.928 22.062C127.868 21.774 127.742 21.546 127.55 21.378C127.358 21.198 127.07 21.108 126.686 21.108C126.242 21.108 125.846 21.234 125.498 21.486C125.162 21.738 124.892 22.086 124.688 22.53C124.496 22.962 124.4 23.448 124.4 23.988V28.326C124.4 28.83 124.484 29.172 124.652 29.352C124.832 29.532 125.12 29.622 125.516 29.622V30C125.324 29.988 125.03 29.976 124.634 29.964C124.25 29.94 123.848 29.928 123.428 29.928C123.02 29.928 122.594 29.94 122.15 29.964C121.706 29.976 121.376 29.988 121.16 30V29.622C121.628 29.622 121.958 29.532 122.15 29.352C122.354 29.172 122.456 28.83 122.456 28.326V22.674C122.456 22.134 122.366 21.738 122.186 21.486C122.006 21.222 121.664 21.09 121.16 21.09V20.712C121.544 20.748 121.916 20.766 122.276 20.766C122.684 20.766 123.062 20.748 123.41 20.712C123.77 20.664 124.1 20.598 124.4 20.514V22.476C124.712 21.732 125.138 21.21 125.678 20.91C126.23 20.61 126.812 20.46 127.424 20.46ZM134.544 30.126C134.04 30.126 133.608 30.03 133.248 29.838C132.888 29.646 132.618 29.382 132.438 29.046C132.258 28.71 132.168 28.326 132.168 27.894C132.168 27.366 132.288 26.94 132.528 26.616C132.768 26.28 133.074 26.01 133.446 25.806C133.83 25.602 134.232 25.434 134.652 25.302C135.084 25.158 135.486 25.026 135.858 24.906C136.242 24.774 136.554 24.624 136.794 24.456C137.046 24.288 137.172 24.066 137.172 23.79V22.566C137.172 22.134 137.1 21.792 136.956 21.54C136.824 21.276 136.638 21.09 136.398 20.982C136.17 20.874 135.894 20.82 135.57 20.82C135.294 20.82 135 20.862 134.688 20.946C134.376 21.018 134.13 21.168 133.95 21.396C134.214 21.468 134.43 21.612 134.598 21.828C134.778 22.032 134.868 22.29 134.868 22.602C134.868 22.938 134.754 23.202 134.526 23.394C134.31 23.586 134.034 23.682 133.698 23.682C133.326 23.682 133.05 23.568 132.87 23.34C132.69 23.1 132.6 22.824 132.6 22.512C132.6 22.188 132.678 21.924 132.834 21.72C133.002 21.516 133.218 21.324 133.482 21.144C133.77 20.952 134.136 20.79 134.58 20.658C135.036 20.526 135.54 20.46 136.092 20.46C136.608 20.46 137.052 20.52 137.424 20.64C137.808 20.748 138.126 20.928 138.378 21.18C138.678 21.456 138.876 21.804 138.972 22.224C139.068 22.632 139.116 23.13 139.116 23.718V28.686C139.116 28.986 139.152 29.202 139.224 29.334C139.308 29.454 139.44 29.514 139.62 29.514C139.74 29.514 139.854 29.484 139.962 29.424C140.082 29.364 140.22 29.274 140.376 29.154L140.556 29.46C140.304 29.664 140.046 29.826 139.782 29.946C139.53 30.066 139.206 30.126 138.81 30.126C138.426 30.126 138.114 30.066 137.874 29.946C137.634 29.826 137.454 29.652 137.334 29.424C137.226 29.196 137.172 28.914 137.172 28.578C136.86 29.082 136.488 29.466 136.056 29.73C135.624 29.994 135.12 30.126 134.544 30.126ZM135.408 29.262C135.744 29.262 136.056 29.166 136.344 28.974C136.644 28.782 136.92 28.494 137.172 28.11V24.528C137.04 24.72 136.848 24.888 136.596 25.032C136.344 25.164 136.074 25.302 135.786 25.446C135.498 25.59 135.222 25.758 134.958 25.95C134.706 26.13 134.496 26.364 134.328 26.652C134.16 26.94 134.076 27.306 134.076 27.75C134.076 28.218 134.196 28.59 134.436 28.866C134.676 29.13 135 29.262 135.408 29.262ZM147.357 20.46C147.837 20.46 148.227 20.526 148.527 20.658C148.839 20.778 149.097 20.946 149.301 21.162C149.517 21.39 149.667 21.684 149.751 22.044C149.847 22.404 149.895 22.89 149.895 23.502V28.326C149.895 28.83 149.991 29.172 150.183 29.352C150.387 29.532 150.723 29.622 151.191 29.622V30C150.987 29.988 150.669 29.976 150.237 29.964C149.805 29.94 149.379 29.928 148.959 29.928C148.551 29.928 148.143 29.94 147.735 29.964C147.339 29.976 147.039 29.988 146.835 30V29.622C147.243 29.622 147.531 29.532 147.699 29.352C147.867 29.172 147.951 28.83 147.951 28.326V22.998C147.951 22.65 147.921 22.338 147.861 22.062C147.801 21.774 147.675 21.546 147.483 21.378C147.291 21.198 147.003 21.108 146.619 21.108C146.175 21.108 145.779 21.234 145.431 21.486C145.095 21.738 144.825 22.086 144.621 22.53C144.429 22.962 144.333 23.448 144.333 23.988V28.326C144.333 28.83 144.417 29.172 144.585 29.352C144.765 29.532 145.053 29.622 145.449 29.622V30C145.257 29.988 144.963 29.976 144.567 29.964C144.183 29.94 143.781 29.928 143.361 29.928C142.953 29.928 142.527 29.94 142.083 29.964C141.639 29.976 141.309 29.988 141.093 30V29.622C141.561 29.622 141.891 29.532 142.083 29.352C142.287 29.172 142.389 28.83 142.389 28.326V22.674C142.389 22.134 142.299 21.738 142.119 21.486C141.939 21.222 141.597 21.09 141.093 21.09V20.712C141.477 20.748 141.849 20.766 142.209 20.766C142.617 20.766 142.995 20.748 143.343 20.712C143.703 20.664 144.033 20.598 144.333 20.514V22.476C144.645 21.732 145.071 21.21 145.611 20.91C146.163 20.61 146.745 20.46 147.357 20.46ZM155.165 33.384C154.493 33.384 153.869 33.318 153.293 33.186C152.729 33.054 152.273 32.85 151.925 32.574C151.589 32.31 151.421 31.968 151.421 31.548C151.421 31.152 151.589 30.804 151.925 30.504C152.261 30.204 152.735 29.976 153.347 29.82L153.473 30.108C153.221 30.216 153.023 30.39 152.879 30.63C152.747 30.87 152.681 31.134 152.681 31.422C152.681 31.95 152.927 32.358 153.419 32.646C153.911 32.934 154.559 33.078 155.363 33.078C155.903 33.078 156.413 33.006 156.893 32.862C157.385 32.73 157.781 32.508 158.081 32.196C158.393 31.884 158.549 31.482 158.549 30.99C158.549 30.606 158.411 30.282 158.135 30.018C157.859 29.766 157.313 29.64 156.497 29.64H155.237C154.817 29.64 154.427 29.604 154.067 29.532C153.707 29.46 153.413 29.322 153.185 29.118C152.969 28.902 152.861 28.602 152.861 28.218C152.861 27.786 153.041 27.378 153.401 26.994C153.761 26.61 154.367 26.232 155.219 25.86L155.435 26.022C155.087 26.214 154.775 26.412 154.499 26.616C154.235 26.808 154.103 27.048 154.103 27.336C154.103 27.72 154.379 27.912 154.931 27.912H157.073C157.637 27.912 158.147 27.99 158.603 28.146C159.059 28.29 159.425 28.524 159.701 28.848C159.977 29.172 160.115 29.598 160.115 30.126C160.115 30.69 159.929 31.218 159.557 31.71C159.197 32.214 158.651 32.616 157.919 32.916C157.187 33.228 156.269 33.384 155.165 33.384ZM155.273 26.166C154.661 26.166 154.103 26.07 153.599 25.878C153.095 25.674 152.699 25.362 152.411 24.942C152.123 24.522 151.979 23.982 151.979 23.322C151.979 22.662 152.123 22.122 152.411 21.702C152.699 21.27 153.095 20.958 153.599 20.766C154.103 20.562 154.661 20.46 155.273 20.46C155.909 20.46 156.473 20.562 156.965 20.766C157.457 20.958 157.847 21.27 158.135 21.702C158.423 22.122 158.567 22.662 158.567 23.322C158.567 23.982 158.423 24.522 158.135 24.942C157.847 25.362 157.457 25.674 156.965 25.878C156.473 26.07 155.909 26.166 155.273 26.166ZM155.273 25.842C155.693 25.842 156.017 25.662 156.245 25.302C156.473 24.942 156.587 24.282 156.587 23.322C156.587 22.362 156.473 21.702 156.245 21.342C156.017 20.97 155.693 20.784 155.273 20.784C154.877 20.784 154.559 20.97 154.319 21.342C154.079 21.702 153.959 22.362 153.959 23.322C153.959 24.282 154.079 24.942 154.319 25.302C154.559 25.662 154.877 25.842 155.273 25.842ZM157.937 21.972L157.613 21.846C157.781 21.426 158.069 21.06 158.477 20.748C158.885 20.436 159.311 20.28 159.755 20.28C160.091 20.28 160.355 20.376 160.547 20.568C160.751 20.748 160.853 21.006 160.853 21.342C160.853 21.714 160.751 21.978 160.547 22.134C160.355 22.29 160.151 22.368 159.935 22.368C159.743 22.368 159.563 22.302 159.395 22.17C159.239 22.038 159.149 21.834 159.125 21.558C159.101 21.27 159.191 20.904 159.395 20.46L159.593 20.532C159.113 20.724 158.759 20.928 158.531 21.144C158.315 21.348 158.117 21.624 157.937 21.972Z" fill="#623F18"/>
<defs>
<linearGradient id="paint0_linear_414_142" x1="23.5" y1="13.6295" x2="18.4758" y2="10.6425" gradientUnits="userSpaceOnUse">
<stop stop-color="#D5B69C"/>
<stop offset="1" stop-color="#BF9672"/>
</linearGradient>
<linearGradient id="paint1_linear_414_142" x1="15.8438" y1="40.0903" x2="10.0486" y2="32.1864" gradientUnits="userSpaceOnUse">
<stop stop-color="#D5B69C"/>
<stop offset="1" stop-color="#BF9672"/>
</linearGradient>
<linearGradient id="paint2_linear_414_142" x1="15.8438" y1="40.0903" x2="10.0486" y2="32.1864" gradientUnits="userSpaceOnUse">
<stop stop-color="#D5B69C"/>
<stop offset="1" stop-color="#BF9672"/>
</linearGradient>
<clipPath id="clip0_414_142">
<rect width="45" height="46" fill="white"/>
</clipPath>
</defs>
</svg>
